<svg width="230" height="43" viewBox="0 0 230 43" fill="none" xmlns="http://www.w3.org/2000/svg">
<g >
<path fill-rule="evenodd" clip-rule="evenodd" d="M49.1195 33.9839V8.84644H55.2996V18.5001L65.6608 8.84644H73.6066L62.7623 18.6022L74.9393 33.9839H67.3765L58.4311 22.4607L55.2995 25.2817V33.9839H49.1195Z" fill="#06352F"/>
<path fill-rule="evenodd" clip-rule="evenodd" d="M81.6873 23.5828H88.2005L84.8855 15.8155L81.6873 23.5828ZM70.6931 33.9844L82.37 8.84692H88.3005L99.5282 33.9844H92.6648L90.4161 28.6644H79.5716L77.3562 33.9844H70.6931Z" fill="#06352F"/>
<path fill-rule="evenodd" clip-rule="evenodd" d="M106.209 13.8947V28.7663H110.99C113.81 28.7663 115.954 28.135 117.42 26.8712C118.886 25.608 119.619 23.7582 119.619 21.3222C119.619 18.8859 118.888 17.0392 117.428 15.7817C115.968 14.5237 113.822 13.8947 110.99 13.8947H106.209ZM110.857 8.84692C113.522 8.84692 115.518 8.97456 116.845 9.22926C118.172 9.48468 119.358 9.9067 120.402 10.4955C122.223 11.504 123.628 12.9544 124.616 14.8467C125.604 16.739 126.099 18.9315 126.099 21.4241C126.099 23.9057 125.604 26.0924 124.616 27.9847C123.628 29.8769 122.223 31.3332 120.402 32.3527C119.358 32.9421 118.172 33.3612 116.845 33.6108C115.518 33.8596 113.522 33.9844 110.857 33.9844H99.7292V8.84692H110.857Z" fill="#06352F"/>
<path fill-rule="evenodd" clip-rule="evenodd" d="M142.341 29.4632C144.807 29.4632 146.747 28.7467 148.163 27.3132C149.579 25.8798 150.288 23.9164 150.288 21.4236C150.288 18.9082 149.579 16.9344 148.163 15.5008C146.747 14.0674 144.807 13.3503 142.341 13.3503C139.876 13.3503 137.93 14.0703 136.503 15.509C135.076 16.9484 134.363 18.9199 134.363 21.4236C134.363 23.9164 135.073 25.8798 136.495 27.3132C137.915 28.7467 139.865 29.4632 142.341 29.4632ZM127.566 21.4236C127.566 17.4012 128.904 14.1892 131.581 11.7868C134.257 9.38514 137.843 8.18359 142.341 8.18359C146.839 8.18359 150.421 9.38514 153.086 11.7868C155.751 14.1892 157.084 17.4012 157.084 21.4236C157.084 25.446 155.751 28.6558 153.086 31.0523C150.421 33.4489 146.839 34.6467 142.341 34.6467C137.843 34.6467 134.257 33.4489 131.581 31.0523C128.904 28.6558 127.566 25.446 127.566 21.4236Z" fill="#06352F"/>
<path fill-rule="evenodd" clip-rule="evenodd" d="M162.582 31.4855H171.794C174.037 31.4855 175.661 31.1228 176.666 30.3977C177.671 29.673 178.174 28.5113 178.174 26.9134C178.174 25.1686 177.707 23.8965 176.775 23.098C175.842 22.2994 174.359 21.9 172.327 21.9H162.582V31.4855ZM162.582 19.6393H171.311C173.477 19.6393 175.012 19.3105 175.917 18.6536C176.822 17.9966 177.274 16.9088 177.274 15.3901C177.274 13.8943 176.83 12.8153 175.942 12.1524C175.053 11.4897 173.587 11.1579 171.544 11.1579H162.582V19.6393ZM160.083 33.9839V8.84644H172.061C174.603 8.84644 176.53 9.38225 177.841 10.4526C179.151 11.5234 179.807 13.1015 179.807 15.1861C179.807 16.5235 179.487 17.6508 178.849 18.5684C178.21 19.4859 177.241 20.2059 175.942 20.727C177.497 21.0331 178.682 21.696 179.499 22.7155C180.314 23.735 180.723 25.0555 180.723 26.6755C180.723 29.1682 180.014 31.0097 178.599 32.1996C177.183 33.3894 174.992 33.9839 172.027 33.9839H160.083Z" fill="#06352F"/>
<path fill-rule="evenodd" clip-rule="evenodd" d="M188.471 23.7868H199.765L194.134 10.9374L188.471 23.7868ZM181.374 33.9844L192.735 8.84692H195.567L206.794 33.9844H204.312L200.864 26.2172H187.388L183.906 33.9844H181.374Z" fill="#06352F"/>
<path fill-rule="evenodd" clip-rule="evenodd" d="M219.872 11.1928H211.11V20.8296H220.172C222.526 20.8296 224.22 20.4501 225.253 19.6904C226.286 18.9315 226.802 17.6968 226.802 15.9853C226.802 14.252 226.286 13.0198 225.253 12.2887C224.22 11.5577 222.426 11.1928 219.872 11.1928ZM208.645 33.9844V8.84692H220.455C223.387 8.84692 225.591 9.41358 227.068 10.5469C228.545 11.6802 229.284 13.3683 229.284 15.6115C229.284 17.2771 228.942 18.6114 228.259 19.6141C227.576 20.6167 226.496 21.3676 225.019 21.8661C226.274 22.0701 227.171 22.495 227.709 23.1409C228.248 23.7869 228.612 24.9539 228.801 26.6422C228.878 27.2881 228.956 28.183 229.034 29.3273C229.189 31.7406 229.512 33.2937 230 33.9844H227.135C226.824 33.0214 226.619 31.676 226.519 29.948C226.419 28.2202 226.341 27.1179 226.286 26.6422C226.13 25.3958 225.689 24.5092 224.961 23.9821C224.233 23.4551 223.071 23.1917 221.471 23.1917H211.11V33.9844H208.645Z" fill="#06352F"/>
<path fill-rule="evenodd" clip-rule="evenodd" d="M32.3608 34.4759L36.3547 32.1232V10.7077L34.6505 9.70378L21.3661 23.2581L32.3608 34.4759ZM8.03727 36.8576L18.1774 42.831L29.9972 35.8682L19.5021 25.1599L8.03727 36.8576ZM0 10.7077V32.1232L4.58185 34.8223L4.58199 8.00868L0 10.7077ZM7.21798 6.96146C7.21798 6.80041 7.18566 6.64808 7.13472 6.50488L18.1774 0L32.2869 8.31163L18.571 22.3061L18.5699 22.3069L18.5689 22.3082L7.21798 33.8897V6.96146Z" fill="#06352F"/>
</g>
</svg>
